<?xml version="1.0" encoding="utf-8"?>
<!-- Generator: Adobe Illustrator 27.5.0, SVG Export Plug-In . SVG Version: 6.00 Build 0)  -->
<svg version="1.1" xmlns="http://www.w3.org/2000/svg" xmlns:xlink="http://www.w3.org/1999/xlink" x="0px" y="0px"
	 viewBox="0 0 750 500" style="enable-background:new 0 0 750 500;" xml:space="preserve">
<g id="BACKGROUND">
	<rect x="0" style="fill:#ECF5DC;" width="750" height="500"/>
</g>
<g id="OBJECTS">
	<g>
		<g>
			<path style="fill:#FFFFFF;" d="M281.064,152.056c-0.425-2.688-2.948-4.523-5.636-4.098c-2.688,0.425-4.523,2.948-4.098,5.637
				c0.425,2.688,2.949,4.523,5.636,4.098C279.654,157.267,281.489,154.744,281.064,152.056z"/>
			<path style="fill:none;stroke:#FFFFFF;stroke-width:1.3235;stroke-miterlimit:10;" d="M86.676,69.52
				c-0.425-2.688-2.948-4.523-5.636-4.098c-2.688,0.425-4.523,2.948-4.098,5.636c0.425,2.688,2.949,4.523,5.636,4.098
				C85.267,74.731,87.101,72.208,86.676,69.52z"/>
			<path style="fill:#FFFFFF;" d="M95.038,277.388c-0.508-3.218-3.529-5.414-6.747-4.906c-3.218,0.509-5.414,3.529-4.905,6.747
				c0.508,3.218,3.53,5.414,6.747,4.906C93.351,283.627,95.547,280.606,95.038,277.388z"/>
			<path style="fill:none;stroke:#FFFFFF;stroke-width:1.3235;stroke-miterlimit:10;" d="M64.624,365.355
				c-4.525-2.05-9.856-0.044-11.906,4.482c-2.05,4.525-0.044,9.856,4.482,11.906c4.525,2.05,9.856,0.044,11.906-4.482
				C71.156,372.736,69.15,367.406,64.624,365.355z"/>
			<path style="fill:none;stroke:#FFFFFF;stroke-width:1.3235;stroke-miterlimit:10;" d="M600.16,52.895
				c-4.525-2.05-9.856-0.044-11.906,4.482c-2.05,4.525-0.044,9.856,4.481,11.906c4.526,2.05,9.856,0.044,11.906-4.482
				C606.692,60.276,604.686,54.946,600.16,52.895z"/>
			<path style="fill:#7CD4A0;" d="M383.248,116.958c-1.987-5.303-7.896-7.991-13.198-6.004c-5.303,1.987-7.991,7.896-6.004,13.199
				c1.987,5.303,7.896,7.99,13.198,6.004C382.547,128.169,385.235,122.26,383.248,116.958z"/>
			<path style="fill:#FFFFFF;" d="M612.005,385.124c-1.776,3.346-0.503,7.499,2.843,9.275c3.346,1.776,7.499,0.503,9.275-2.843
				c1.776-3.346,0.503-7.499-2.843-9.275C617.933,380.505,613.781,381.778,612.005,385.124z"/>
			<path style="fill:#7CD4A0;" d="M296.434,65.627h-83.518c-1.844,0-3.338-1.495-3.338-3.338l0,0c0-1.844,1.495-3.339,3.338-3.339
				h83.518c1.844,0,3.339,1.495,3.339,3.339l0,0C299.773,64.133,298.278,65.627,296.434,65.627z"/>
			<path style="fill:#7CD4A0;" d="M693.001,343.947h-50.16c-1.844,0-3.339-1.495-3.339-3.338l0,0c0-1.844,1.495-3.339,3.339-3.339
				h50.16c1.844,0,3.338,1.495,3.338,3.339l0,0C696.339,342.452,694.844,343.947,693.001,343.947z"/>
			
				<line style="fill:none;stroke:#FFFFFF;stroke-width:1.3235;stroke-miterlimit:10;" x1="579.93" y1="132.236" x2="660.846" y2="132.236"/>
			
				<line style="fill:none;stroke:#FFFFFF;stroke-width:1.3235;stroke-miterlimit:10;" x1="41.438" y1="233.076" x2="123.187" y2="233.076"/>
			<path style="fill:none;stroke:#FFFFFF;stroke-width:1.3695;stroke-miterlimit:10;" d="M565.844,379.021
				c0,0-63.297,102.843-315.369,8.785c-187.73-70.05-84.87-236.419,15.353-177.455c100.223,58.964,198.507,2.269,198.507,2.269
				s75.181-31.902,115.122,23.661C579.457,236.28,625.711,312.69,565.844,379.021z"/>
		</g>
		<g>
			<g>
				<g>
					<g>
						<g>
							<g>
								<g>
									<g>
										<path style="fill:#7CD4A0;" d="M188.894,192.569h-85.359c-1.583,0-2.867-1.283-2.867-2.867v-80.622h88.226V192.569z"/>
									</g>
								</g>
							</g>
						</g>
					</g>
				</g>
				<g>
					<polygon style="fill:#FFFFFF;" points="131.186,148.942 153.675,141.014 144.593,162.638 141.74,151.826 					"/>
					
						<rect x="123.994" y="130.038" style="fill:none;stroke:#FFFFFF;stroke-width:1.6615;stroke-miterlimit:10;" width="41.16" height="41.16"/>
					<rect x="120.192" y="126.237" style="fill:#FFFFFF;" width="8.43" height="8.43"/>
					<rect x="160.939" y="126.237" style="fill:#FFFFFF;" width="8.43" height="8.43"/>
					<rect x="120.192" y="166.983" style="fill:#FFFFFF;" width="8.43" height="8.43"/>
					<rect x="160.939" y="166.983" style="fill:#FFFFFF;" width="8.43" height="8.43"/>
				</g>
			</g>
			<g>
				<g>
					<g>
						<g>
							<g>
								<g>
									<g>
										<path style="fill:#7CD4A0;" d="M638.042,299.695h-76.906c-1.426,0-2.583-1.156-2.583-2.583v-72.637h79.488V299.695z"/>
									</g>
								</g>
							</g>
						</g>
					</g>
				</g>
				<g>
					<path style="fill:#FFFFFF;" d="M613.666,242.862v12.469h-0.109l-4.758-10.446c-0.183-0.438-0.355-0.72-0.52-0.847
						c-0.163-0.128-0.464-0.192-0.901-0.192h-6.235v33.688c0,0.329,0.035,0.557,0.109,0.684c0.072,0.128,0.274,0.264,0.601,0.411
						l4.977,2.57v0.109h-17.063V281.2l4.977-2.57c0.474-0.255,0.711-0.62,0.711-1.095v-33.688h-6.233
						c-0.438,0-0.731,0.055-0.875,0.165c-0.146,0.109-0.329,0.401-0.547,0.875l-4.758,10.446h-0.109v-12.469H613.666z"/>
				</g>
			</g>
			<g>
				<circle style="fill:#FFFFFF;" cx="499.642" cy="121.555" r="39.27"/>
				<g>
					<path style="fill:#7CD4A0;" d="M506.233,101.163l-26.766,26.766v9.654h35.688v-3.569h-22.466l23.197-23.197L506.233,101.163z
						 M510.854,110.816l-2.837,2.837l-4.622-4.622l2.837-2.837L510.854,110.816z M483.036,134.013v-4.622l17.844-17.844l4.622,4.622
						l-17.844,17.844H483.036z"/>
				</g>
			</g>
		</g>
	</g>
	<g>
		<g>
			<g>
				<g>
					<polygon style="fill:#D99789;" points="340.903,317.117 328.388,385.896 256.926,406.402 266.407,422.481 363.083,422.481 
						359.076,347.313 					"/>
					<path style="fill:#FFFFFF;" d="M355.442,282.672c0,0-21.728,7.009-32.316,68.775l35.554,7.542L355.442,282.672z"/>
				</g>
				<g>
					<path style="fill:#FFFFFF;" d="M481.02,286.441c-8.762-3.262-32.574-11.475-61.786-16.201c0,0-33.437,0.749-34.093,1.031
						c-0.656,0.282-29.699,11.4-29.699,11.4s-16.983,24.296-2.414,141.714h116.56l-10.602-111.28l22.898-22.56
						C483.182,289.267,482.727,287.077,481.02,286.441z"/>
					
						<path style="fill:none;stroke:#000000;stroke-width:1.3031;stroke-linecap:round;stroke-linejoin:round;stroke-miterlimit:10;" d="
						M347.125,356.537c0,0-1.338-23.308-0.029-37.707"/>
				</g>
				<g>
					<g>
						<path style="fill:#EBB3A2;" d="M480.665,388.016l-103.264,5.572v20.315c0,0,59.377,13.954,111.015,10.267L480.665,388.016z"/>
						<path style="fill:#EBB3A2;" d="M377.401,393.587c0,0-25.968-13.602-41.734-1.513c0,0-12.408,9.403-21.475,21.828h75.893
							L377.401,393.587z"/>
					</g>
					<g>
						<path style="fill:#EBB3A2;" d="M451.615,343.286l13.935,63.005c1.674,10.306,12.425,17.878,22.866,17.878l0,0
							c13.388,0,23.453-12.209,20.901-25.351l-11.504-59.227L451.615,343.286z"/>
						<path style="fill:#FFFFFF;" d="M439.724,321.14l6.56,37.848l59.043-2.018c0,0-6.333-65.553-24.307-70.529L439.724,321.14z"/>
						
							<polyline style="fill:none;stroke:#000000;stroke-width:1.3031;stroke-linecap:round;stroke-linejoin:round;stroke-miterlimit:10;" points="
							455.088,358.988 446.284,358.988 439.724,321.14 						"/>
						
							<polyline style="fill:none;stroke:#000000;stroke-width:1.3031;stroke-linecap:round;stroke-linejoin:round;stroke-miterlimit:10;" points="
							455.088,358.988 446.284,358.988 439.724,321.14 						"/>
					</g>
				</g>
			</g>
			<g>
				
					<ellipse transform="matrix(0.7071 -0.7071 0.7071 0.7071 -47.1485 320.3173)" style="fill:#D99789;" cx="363.083" cy="217.072" rx="11.689" ry="11.689"/>
				<ellipse style="fill:#2A2A2A;" cx="393.916" cy="199.012" rx="38.474" ry="35.774"/>
				<polygon style="fill:#EBB3A2;" points="384.002,241.864 385.454,283.087 421.755,280.141 418.685,220.312 				"/>
				<path style="fill:#D99789;" d="M384.844,265.476c0,0,26.297-1.435,28.282-33.586l-28.9,14.105L384.844,265.476z"/>
				<path style="fill:#EBB3A2;" d="M363.854,186.512c-1.927,0.061-3.63,1.265-4.306,3.07c-1.975,5.276-5.084,17.47-1.221,35.78
					c4.704,22.291,10.314,32.435,34.35,27.378c8.482-1.785,16.236-9.825,21.541-16.678c2.891-3.734,5.157-4.692,5.01-9.316
					c-0.715-22.441-3.46-41.891-3.46-41.891L363.854,186.512z"/>
				<path style="fill:#2A2A2A;" d="M411.954,218.093c0,0-8.195,2.738-6.482-7.294s3.263-22.56-6.076-22.071
					c-9.339,0.489-28.539,9.48-40.716-1.757c0,0-0.187-12.386,44.1-10.918C447.068,177.522,411.954,218.093,411.954,218.093z"/>
				<g>
					
						<ellipse transform="matrix(0.2286 -0.9735 0.9735 0.2286 114.5972 580.8079)" style="fill:#EBB3A2;" cx="423.791" cy="218.093" rx="11.837" ry="11.837"/>
					
						<path style="fill:none;stroke:#000000;stroke-width:1.3031;stroke-linecap:round;stroke-linejoin:round;stroke-miterlimit:10;" d="
						M428.977,214.472c0,0-8.295-2.207-9.742,8.122"/>
				</g>
				<path style="fill:#2A2A2A;" d="M359.076,228.763c0,0,14.152-7.309,34.84,1.993c8.962,4.03,11.556-19.958,11.556-19.958
					l7.654,0.709c0,0,4.737,15.36,1.092,24.555c-4.544,11.463-15.046,21.547-36.506,17.954
					C358.68,250.831,359.076,228.763,359.076,228.763z"/>
				<g>
					
						<path style="fill:none;stroke:#000000;stroke-width:1.3031;stroke-linecap:round;stroke-linejoin:round;stroke-miterlimit:10;" d="
						M369.953,216.605l-0.786,3.872c-0.25,1.232,0.604,2.415,1.852,2.564l2.554,0.307"/>
					<circle cx="385.814" cy="212.331" r="2.681"/>
					<path d="M365.644,212.331c0,1.414-1.146,2.561-2.561,2.561s-2.561-1.147-2.561-2.561c0-1.414,1.146-2.561,2.561-2.561
						S365.644,210.917,365.644,212.331z"/>
					
						<line style="fill:none;stroke:#000000;stroke-width:3.475;stroke-linecap:round;stroke-linejoin:round;stroke-miterlimit:10;" x1="379.837" y1="200.443" x2="392.193" y2="200.443"/>
					
						<line style="fill:none;stroke:#000000;stroke-width:3.475;stroke-linecap:round;stroke-linejoin:round;stroke-miterlimit:10;" x1="360.183" y1="200.443" x2="366.365" y2="200.443"/>
					<path style="fill:#FFFFFF;" d="M368.244,231.596h13.768c0,0-0.288,3.832-6.884,3.832
						C369.633,235.428,368.244,231.596,368.244,231.596z"/>
				</g>
				<path style="fill:#EBB3A2;" d="M419.234,270.241l16.394,3.013c0,0-10.468,20.783-43.151,19.512
					c-25.668-0.998-16.836-17.762-16.836-17.762l9.5-3.732L419.234,270.241z"/>
			</g>
		</g>
		<g>
			<g>
				<linearGradient id="SVGID_1_" gradientUnits="userSpaceOnUse" x1="191.9271" y1="423.3686" x2="378.0703" y2="307.3946">
					<stop  offset="0" style="stop-color:#FFFFFF"/>
					<stop  offset="1" style="stop-color:#FFFFFF;stop-opacity:0"/>
				</linearGradient>
				<polygon style="opacity:0.59;fill:url(#SVGID_1_);" points="107.269,321.211 342.413,155.6 469.589,424.385 285.345,417.046 
									"/>
				<g>
					<path style="fill:#364556;" d="M279.305,412.777h86.662c5.359,0,9.704,4.344,9.704,9.704l0,0h-96.365V412.777z"/>
					<path style="fill:#364556;" d="M287.246,422.481H139.359l-24.454-90.158c-1.595-5.88,2.833-11.669,8.926-11.669h128.722
						c4.175,0,7.833,2.798,8.925,6.827L287.246,422.481z"/>
					<path style="fill:#7CD4A0;" d="M279.305,422.481H125.971l-24.454-90.158c-1.595-5.88,2.833-11.669,8.926-11.669h134.169
						c4.175,0,7.833,2.798,8.926,6.827L279.305,422.481z"/>
					
						<ellipse transform="matrix(0.9249 -0.3802 0.3802 0.9249 -128.0254 98.025)" style="fill:#FFFFFF;" cx="184.14" cy="373.112" rx="10.749" ry="10.749"/>
				</g>
			</g>
			
				<line style="fill:none;stroke:#2A2A2A;stroke-width:3;stroke-linecap:round;stroke-linejoin:round;stroke-miterlimit:10;" x1="658.502" y1="424.385" x2="65.573" y2="424.385"/>
		</g>
	</g>
</g>
<g id="DESIGNED_BY_FREEPIK">
	<g>
		<g id="XMLID_29_">
			<g id="XMLID_48_">
				<path id="XMLID_56_" style="fill:#1C1C1B;" d="M385.084,465.471c-0.432,0.443-0.803,0.931-1.108,1.453l-0.465-0.241
					c-0.067-0.298-0.349-0.503-0.659-0.466c-0.331,0.039-0.568,0.339-0.529,0.67c0.039,0.331,0.339,0.568,0.67,0.529
					c0.065-0.008,0.127-0.026,0.184-0.052l0.452,0.234c-0.251,0.554-0.433,1.139-0.539,1.744l0.746,0.132
					c0.23-1.306,0.85-2.507,1.792-3.472L385.084,465.471z"/>
				<path id="XMLID_55_" style="fill:#1C1C1B;" d="M390.572,463.169c-0.171,0-0.341,0.006-0.51,0.017l-0.074-0.626
					c0.188-0.149,0.296-0.389,0.266-0.645c-0.046-0.393-0.402-0.674-0.795-0.628s-0.674,0.402-0.628,0.795
					c0.03,0.254,0.189,0.461,0.405,0.564l0.073,0.624c-0.714,0.116-1.403,0.332-2.06,0.646l0.327,0.684
					c0.934-0.447,1.942-0.673,2.995-0.673c0.496,0,0.993,0.053,1.475,0.158l0.161-0.741
					C391.672,463.228,391.122,463.169,390.572,463.169z"/>
				<path id="XMLID_54_" style="fill:#1C1C1B;" d="M397.174,465.716c0.331-0.04,0.566-0.341,0.525-0.672
					c-0.04-0.331-0.341-0.566-0.672-0.526c-0.309,0.038-0.535,0.304-0.53,0.609l-0.416,0.363c-0.418-0.43-0.89-0.813-1.408-1.139
					l-0.404,0.641c1.134,0.715,2.021,1.726,2.563,2.925l0.69-0.313c-0.251-0.554-0.567-1.072-0.942-1.545l0.402-0.351
					C397.045,465.721,397.109,465.724,397.174,465.716z"/>
				<path id="XMLID_53_" style="fill:#1C1C1B;" d="M390.024,473.377c-0.386,0.023-0.775,0.035-1.157,0.035
					c-0.88,0-1.733-0.061-2.478-0.179c-0.39-0.062-0.846-0.155-1.27-0.292c1.046,1.861,3.069,3.125,5.388,3.125
					c2.855,0,5.262-1.916,5.95-4.504c-0.682,0.449-1.505,0.825-2.459,1.123C392.818,473.052,391.443,473.292,390.024,473.377z"/>
				<path id="XMLID_49_" style="fill:#1C1C1B;" d="M390.572,464.685c-3.352,0-6.08,2.666-6.08,5.944
					c0,0.425,0.046,0.849,0.137,1.261c0.673,0.483,2.706,0.89,5.348,0.731c2.879-0.173,5.297-0.957,6.672-2.158
					c-0.005-0.195-0.021-0.39-0.045-0.582C396.223,466.919,393.63,464.685,390.572,464.685z M388.412,471.2
					c-1.02,0-1.85-0.83-1.85-1.85c0-1.02,0.83-1.85,1.85-1.85c1.02,0,1.85,0.83,1.85,1.85
					C390.262,470.37,389.432,471.2,388.412,471.2z M393.15,470.292c-0.75,0-1.36-0.61-1.36-1.36s0.61-1.361,1.36-1.361
					c0.75,0,1.361,0.61,1.361,1.361S393.9,470.292,393.15,470.292z"/>
			</g>
			<path id="XMLID_46_" style="fill:#1C1C1B;" d="M406.575,466.552c-0.295-0.116-0.806-0.309-1.382-0.237
				c-0.551,0.068-0.844,0.34-0.844,1.007v0.866h2.228v1.717h-2.228v5.455h-1.932v-5.455h-1.34v-1.717h1.34v-0.888
				c0-1.68,0.896-2.783,2.568-2.783c0.643,0,1.157,0.122,1.59,0.308L406.575,466.552z"/>
			<path id="XMLID_44_" style="fill:#1C1C1B;" d="M411.278,469.884c-0.177-0.03-0.358-0.046-0.526-0.046
				c-0.896,0-1.51,0.548-1.51,1.613v3.908h-1.932v-7.172h1.873v0.785c0.451-0.673,1.14-0.977,2.021-0.977
				c0.414,0,0.848,0.128,1.094,0.337L411.278,469.884z"/>
			<path id="XMLID_41_" style="fill:#1C1C1B;" d="M418.945,471.762c0,0.222-0.015,0.489-0.037,0.651h-5.085
				c0.207,1.036,0.933,1.488,1.843,1.488c0.622,0,1.295-0.252,1.813-0.688l1.133,1.243c-0.814,0.748-1.85,1.088-3.057,1.088
				c-2.198,0-3.723-1.495-3.723-3.753c0-2.258,1.48-3.797,3.626-3.797C417.524,467.995,418.937,469.527,418.945,471.762z
				 M413.83,471.096h3.175c-0.177-0.918-0.733-1.436-1.562-1.436C414.534,469.66,414.001,470.208,413.83,471.096z"/>
			<path id="XMLID_38_" style="fill:#1C1C1B;" d="M426.598,471.762c0,0.222-0.015,0.489-0.037,0.651h-5.085
				c0.207,1.036,0.932,1.488,1.843,1.488c0.622,0,1.295-0.252,1.813-0.688l1.132,1.243c-0.814,0.748-1.85,1.088-3.057,1.088
				c-2.198,0-3.723-1.495-3.723-3.753c0-2.258,1.48-3.797,3.627-3.797C425.177,467.995,426.591,469.527,426.598,471.762z
				 M421.484,471.096h3.175c-0.178-0.918-0.733-1.436-1.562-1.436C422.187,469.66,421.654,470.208,421.484,471.096z"/>
			<path id="XMLID_35_" style="fill:#1C1C1B;" d="M434.944,471.77c0,2.154-1.495,3.775-3.471,3.775
				c-0.962,0-1.643-0.378-2.109-0.933v3.708h-1.924v-10.133h1.887v0.792c0.466-0.585,1.155-0.984,2.139-0.984
				C433.449,467.995,434.944,469.616,434.944,471.77z M429.267,471.77c0,1.132,0.748,1.976,1.843,1.976
				c1.14,0,1.85-0.881,1.85-1.976c0-1.095-0.71-1.976-1.85-1.976C430.014,469.794,429.267,470.637,429.267,471.77z"/>
			<path id="XMLID_32_" style="fill:#1C1C1B;" d="M438.047,465.841c0,0.696-0.54,1.229-1.236,1.229
				c-0.696,0-1.229-0.533-1.229-1.229c0-0.696,0.533-1.243,1.229-1.243C437.507,464.598,438.047,465.146,438.047,465.841z
				 M437.788,475.359h-1.932v-7.172h1.932V475.359z"/>
			<path id="XMLID_30_" style="fill:#1C1C1B;" d="M441.012,470.741l2.701-2.554h2.368l-3.479,3.375l3.501,3.797h-2.376l-2.716-2.901
				v2.901h-1.932v-10.658h1.932V470.741z"/>
		</g>
		<g>
			<path style="fill:#1C1C1B;" d="M309.392,475.294v-1.055c-0.527,0.718-1.391,1.231-2.388,1.231c-1.846,0-3.149-1.406-3.149-3.706
				c0-2.256,1.289-3.721,3.149-3.721c0.952,0,1.816,0.469,2.388,1.245v-3.765h1.099v9.77H309.392z M309.392,473.376v-3.208
				c-0.395-0.615-1.245-1.143-2.124-1.143c-1.421,0-2.27,1.172-2.27,2.739c0,1.567,0.85,2.724,2.27,2.724
				C308.147,474.489,308.997,473.991,309.392,473.376z"/>
			<path style="fill:#1C1C1B;" d="M311.912,471.75c0-2.051,1.465-3.706,3.486-3.706c2.139,0,3.398,1.67,3.398,3.794v0.279h-5.727
				c0.088,1.333,1.025,2.446,2.549,2.446c0.806,0,1.626-0.322,2.182-0.893l0.527,0.718c-0.703,0.703-1.655,1.084-2.812,1.084
				C313.42,475.47,311.912,473.962,311.912,471.75z M315.383,468.952c-1.509,0-2.256,1.274-2.314,2.358h4.643
				C317.697,470.255,316.994,468.952,315.383,468.952z"/>
			<path style="fill:#1C1C1B;" d="M319.587,474.357l0.571-0.791c0.469,0.542,1.362,1.011,2.329,1.011c1.084,0,1.67-0.513,1.67-1.216
				c0-1.714-4.38-0.659-4.38-3.281c0-1.098,0.952-2.036,2.636-2.036c1.201,0,2.051,0.454,2.622,1.026l-0.513,0.762
				c-0.424-0.513-1.201-0.894-2.109-0.894c-0.967,0-1.567,0.483-1.567,1.113c0,1.552,4.38,0.527,4.38,3.281
				c0,1.187-0.952,2.139-2.783,2.139C321.286,475.47,320.304,475.119,319.587,474.357z"/>
			<path style="fill:#1C1C1B;" d="M326.457,466.477c0-0.41,0.337-0.747,0.732-0.747c0.41,0,0.747,0.337,0.747,0.747
				c0,0.41-0.337,0.732-0.747,0.732C326.794,467.209,326.457,466.887,326.457,466.477z M326.647,475.294v-7.075h1.099v7.075H326.647
				z"/>
			<path style="fill:#1C1C1B;" d="M329.562,477.111l0.556-0.82c0.586,0.703,1.289,0.967,2.3,0.967c1.172,0,2.27-0.571,2.27-2.124
				v-1.011c-0.513,0.718-1.377,1.26-2.373,1.26c-1.845,0-3.149-1.377-3.149-3.662c0-2.27,1.289-3.677,3.149-3.677
				c0.952,0,1.802,0.469,2.373,1.245v-1.069h1.099v6.87c0,2.344-1.641,3.076-3.369,3.076
				C331.217,478.165,330.396,477.931,329.562,477.111z M334.688,473.259v-3.091c-0.381-0.615-1.23-1.143-2.109-1.143
				c-1.421,0-2.27,1.128-2.27,2.695c0,1.553,0.849,2.695,2.27,2.695C333.458,474.416,334.307,473.874,334.688,473.259z"/>
			<path style="fill:#1C1C1B;" d="M342.393,475.294v-4.629c0-1.245-0.63-1.641-1.582-1.641c-0.865,0-1.685,0.527-2.095,1.099v5.17
				h-1.099v-7.075h1.099v1.025c0.498-0.586,1.465-1.201,2.519-1.201c1.48,0,2.256,0.747,2.256,2.285v4.966H342.393z"/>
			<path style="fill:#1C1C1B;" d="M344.912,471.75c0-2.051,1.465-3.706,3.486-3.706c2.138,0,3.398,1.67,3.398,3.794v0.279h-5.727
				c0.088,1.333,1.025,2.446,2.549,2.446c0.806,0,1.626-0.322,2.183-0.893l0.527,0.718c-0.703,0.703-1.655,1.084-2.812,1.084
				C346.421,475.47,344.912,473.962,344.912,471.75z M348.384,468.952c-1.509,0-2.256,1.274-2.314,2.358h4.643
				C350.698,470.255,349.995,468.952,348.384,468.952z"/>
			<path style="fill:#1C1C1B;" d="M358.33,475.294v-1.055c-0.527,0.718-1.391,1.231-2.388,1.231c-1.846,0-3.149-1.406-3.149-3.706
				c0-2.256,1.289-3.721,3.149-3.721c0.952,0,1.817,0.469,2.388,1.245v-3.765h1.099v9.77H358.33z M358.33,473.376v-3.208
				c-0.396-0.615-1.245-1.143-2.124-1.143c-1.421,0-2.27,1.172-2.27,2.739c0,1.567,0.849,2.724,2.27,2.724
				C357.085,474.489,357.934,473.991,358.33,473.376z"/>
			<path style="fill:#1C1C1B;" d="M364.672,475.294v-9.77h1.099v3.765c0.572-0.776,1.421-1.245,2.388-1.245
				c1.845,0,3.149,1.465,3.149,3.721c0,2.299-1.304,3.706-3.149,3.706c-0.996,0-1.86-0.513-2.388-1.231v1.055H364.672z
				 M367.879,474.489c1.436,0,2.286-1.157,2.286-2.724c0-1.568-0.85-2.739-2.286-2.739c-0.864,0-1.728,0.527-2.109,1.143v3.208
				C366.151,473.991,367.015,474.489,367.879,474.489z"/>
			<path style="fill:#1C1C1B;" d="M372.508,477.067c0.161,0.073,0.425,0.117,0.601,0.117c0.483,0,0.806-0.161,1.055-0.747
				l0.469-1.069l-2.959-7.148h1.187l2.358,5.801l2.344-5.801h1.201l-3.545,8.51c-0.425,1.025-1.143,1.421-2.08,1.435
				c-0.234,0-0.601-0.044-0.806-0.103L372.508,477.067z"/>
		</g>
	</g>
</g>
</svg>
